<?xml version="1.0" standalone="no"?><svg xmlns="http://www.w3.org/2000/svg" viewBox="0 0 1440 320"><path fill="#5E807F" fill-opacity="1" d="M0,224L34.3,218.7C68.6,213,137,203,206,192C274.3,181,343,171,411,186.7C480,203,549,245,617,250.7C685.7,256,754,224,823,218.7C891.4,213,960,235,1029,234.7C1097.1,235,1166,213,1234,197.3C1302.9,181,1371,171,1406,165.3L1440,160L1440,320L1405.7,320C1371.4,320,1303,320,1234,320C1165.7,320,1097,320,1029,320C960,320,891,320,823,320C754.3,320,686,320,617,320C548.6,320,480,320,411,320C342.9,320,274,320,206,320C137.1,320,69,320,34,320L0,320Z" style="--darkreader-inline-fill: #4b6666;" data-darkreader-inline-fill=""></path></svg>